# xmcd
#
# Track frame offsets:
#	150
#	9115
#	23060
#	35610
#	49375
#	68505
#	82932
#	93872
#	106752
#	120042
#	136775
#	154867
#	172547
#	186934
#	208272
#	219225
#	231632
#	242112
#	254955
#	270350
#
# Disc length: 3767 seconds
#
# Revision: 1
# Processed by: cddbd v1.4PL0 Copyright (c) Steve Scherf et al.
# Submitted via: audiograbber 1.80.04
#
DISCID=fd0eb514
DTITLE=Pena Branca and Xavantinho - Millennium
DYEAR=1900
DGENRE=
TTITLE0=Chora, viola (viola marvada)
TTITLE1=A vida do viajante
TTITLE2=O rei do gado
TTITLE3=Chalana
TTITLE4=O cio da Terra
TTITLE5=No dia em que um vim me embora
TTITLE6=Farra de peão
TTITLE7=Luar do sertão
TTITLE8=Triste berrante
TTITLE9=Arruda com alecrim
TTITLE10=O ciúme
TTITLE11=Tristeza do jeca
TTITLE12=Rancho triste
TTITLE13=Romaria
TTITLE14=Ribeirão encheu
TTITLE15=Uirapuru
TTITLE16=Velho catireiro
TTITLE17=Sodade, meu bem, sodade
TTITLE18=Reisado
TTITLE19=Ituverava
EXTD=
EXTT0=
EXTT1=
EXTT2=
EXTT3=
EXTT4=
EXTT5=
EXTT6=
EXTT7=
EXTT8=
EXTT9=
EXTT10=
EXTT11=
EXTT12=
EXTT13=
EXTT14=
EXTT15=
EXTT16=
EXTT17=
EXTT18=
EXTT19=
PLAYORDER=
